<svg xmlns="http://www.w3.org/2000/svg" width="57" height="41"><path d="M53.673 21.261a12.23 12.23 0 00-5.603-3.07.702.702 0 01-.44-.307.605.605 0 01-.068-.482 20.08 20.08 0 012.849-5.867 38.322 38.322 0 013.675-4.648 3.14 3.14 0 00.861-2.564 3.147 3.147 0 00-1.463-2.225l-2.6-1.585a3.365 3.365 0 00-3.572 0c-4.33 2.846-7.967 6.568-10.655 10.905-3.018 4.64-4.631 10.002-4.657 15.478 0 4.457 1.23 7.96 3.65 10.4 2.389 2.433 5.735 3.778 9.21 3.7 3.198.03 6.272-1.191 8.52-3.385 2.395-2.252 3.706-5.366 3.616-8.59.07-2.921-1.135-5.737-3.323-7.76zM16.07 18.203a.697.697 0 01-.439-.307.646.646 0 01-.069-.482 20.264 20.264 0 012.85-5.868 38.311 38.311 0 013.675-4.649c.656-.683.965-1.61.846-2.534a3.144 3.144 0 00-1.466-2.255L18.885.514a3.347 3.347 0 00-3.564 0C10.987 3.356 7.347 7.075 4.657 11.413 1.639 16.053.026 21.416 0 26.893c0 4.458 1.23 7.961 3.658 10.401 2.387 2.437 5.735 3.783 9.21 3.703 3.198.027 6.272-1.195 8.522-3.387 2.385-2.258 3.691-5.37 3.606-8.591.074-2.921-1.129-5.738-3.314-7.762a12.302 12.302 0 00-5.612-3.054z" fill="#77C8E6"/></svg>